<svg id="Layer_1" data-name="Layer 1" xmlns="http://www.w3.org/2000/svg" viewBox="0 0 80 80"><defs><style>.cls-1{fill:#d92327;}.cls-2,.cls-3,.cls-4{fill:none;stroke-miterlimit:10;stroke-width:4px;}.cls-2{stroke:#d8262c;}.cls-2,.cls-4{stroke-linecap:round;}.cls-3,.cls-4{stroke:#d92327;}.cls-3{fill-rule:evenodd;}</style></defs><title>Goldeneye</title><circle class="cls-1" cx="50.63" cy="27.3" r="3"/><circle class="cls-1" cx="29.38" cy="27.3" r="3"/><line class="cls-2" x1="55.3" y1="19.23" x2="64.61" y2="9.92"/><line class="cls-2" x1="24.73" y1="19.23" x2="15.42" y2="9.92"/><path class="cls-3" d="M40,14.08c13.67,0,23,10,23,22.46V40h0a7,7,0,0,1,7,7V62a5,5,0,0,1-5,5h0a5,5,0,0,1-5-5V61"/><path class="cls-3" d="M40,14.08c-13.67,0-23,10-23,22.46V40h0a7,7,0,0,0-7,7V62a5,5,0,0,0,5,5h0a5,5,0,0,0,5-5V61"/><circle class="cls-4" cx="40" cy="54" r="16"/><line class="cls-4" x1="26.75" y1="61.04" x2="44.06" y2="61.04"/><line class="cls-4" x1="26.75" y1="45.13" x2="35.94" y2="61.04"/><line class="cls-4" x1="40.29" y1="38" x2="31.87" y2="54"/><line class="cls-4" x1="53.63" y1="46.96" x2="35.94" y2="46.96"/><line class="cls-4" x1="52.87" y1="62.21" x2="44.06" y2="46.96"/><line class="cls-4" x1="39.32" y1="69.25" x2="48.13" y2="54"/></svg>